HIERARCHY
ROOT Hips
{
	OFFSET -3.958830 18.904000 13.208200
	CHANNELS 6 Xposition Yposition Zposition Zrotation Yrotation Xrotation 
	JOINT LHipJoint
	{
		OFFSET 0.000000 0.000000 0.000000
		CHANNELS 3 Zrotation Yrotation Xrotation
		JOINT LeftUpLeg
		{
			OFFSET 1.800000 -1.400000 0.085000
			CHANNELS 3 Zrotation Yrotation Xrotation
			JOINT LeftLeg
			{
				OFFSET 2.215000 -6.000000 0.000000
				CHANNELS 3 Zrotation Yrotation Xrotation
				JOINT LeftFoot
				{
					OFFSET 2.500000 -6.900000 0.000000
					CHANNELS 3 Zrotation Yrotation Xrotation
					JOINT LeftToeBase
					{
						OFFSET 0.200000 -0.500000 1.950000
						CHANNELS 3 Zrotation Yrotation Xrotation
						End Site
						{
							OFFSET 0.000000 0.000000 0.000000
						}
					}
				}
			}
		}
	}
	JOINT RHipJoint
	{
		OFFSET 0.000000 0.000000 0.000000
		CHANNELS 3 Zrotation Yrotation Xrotation
		JOINT RightUpLeg
		{
			OFFSET -1.800000 -1.400000 0.085000
			CHANNELS 3 Zrotation Yrotation Xrotation
			JOINT RightLeg
			{
				OFFSET -2.215000 -6.000000 0.000000
				CHANNELS 3 Zrotation Yrotation Xrotation
				JOINT RightFoot
				{
					OFFSET -2.500000 -6.900000 0.000000
					CHANNELS 3 Zrotation Yrotation Xrotation
					JOINT RightToeBase
					{
						OFFSET -0.200000 -0.500000 1.950000
						CHANNELS 3 Zrotation Yrotation Xrotation
						End Site
						{
							OFFSET 0.000000 0.000000 0.000000
						}
					}
				}
			}
		}
	}
	JOINT LowerBack
	{
		OFFSET 0.000000 0.000000 0.000000
		CHANNELS 3 Zrotation Yrotation Xrotation
		JOINT Spine
		{
			OFFSET -0.087000 1.940000 -0.288900
			CHANNELS 3 Zrotation Yrotation Xrotation
			JOINT Spine1
			{
				OFFSET 0.000000 1.950000 0.060000
				CHANNELS 3 Zrotation Yrotation Xrotation
				JOINT Neck
				{
					OFFSET 0.000000 0.000000 0.000000
					CHANNELS 3 Zrotation Yrotation Xrotation
					JOINT Neck1
					{
						OFFSET 0.000000 1.600000 0.340000
						CHANNELS 3 Zrotation Yrotation Xrotation
						JOINT Head
						{
							OFFSET 0.000000 1.667000 -0.240000
							CHANNELS 3 Zrotation Yrotation Xrotation
							End Site
							{
								OFFSET 0.000000 0.000000 0.000000
							}
						}
					}
				}
				JOINT LeftShoulder
				{
					OFFSET 0.000000 0.000000 0.000000
					CHANNELS 3 Zrotation Yrotation Xrotation
					JOINT LeftArm
					{
						OFFSET 2.700000 1.550000 -0.730000
						CHANNELS 3 Zrotation Yrotation Xrotation
						JOINT LeftForeArm
						{
							OFFSET 5.450000 0.000000 0.000000
							CHANNELS 3 Zrotation Yrotation Xrotation
							JOINT LeftHand
							{
								OFFSET 3.450000 0.000000 0.000000
								CHANNELS 3 Zrotation Yrotation Xrotation
								JOINT LeftHandIndex1
								{
									OFFSET 0.750000 0.000000 0.000000
									CHANNELS 3 Zrotation Yrotation Xrotation
									End Site
									{
										OFFSET 0.000000 0.000000 0.000000
									}
								}
							}
						}
					}
				}
				JOINT RightShoulder
				{
					OFFSET 0.000000 0.000000 0.000000
					CHANNELS 3 Zrotation Yrotation Xrotation
					JOINT RightArm
					{
						OFFSET -2.700000 1.550000 -0.730000
						CHANNELS 3 Zrotation Yrotation Xrotation
						JOINT RightForeArm
						{
							OFFSET -5.450000 0.000000 0.000000
							CHANNELS 3 Zrotation Yrotation Xrotation
							JOINT RightHand
							{
								OFFSET -3.450000 0.000000 0.000000
								CHANNELS 3 Zrotation Yrotation Xrotation
								JOINT RightHandIndex1
								{
									OFFSET -0.750000 0.000000 0.000000
									CHANNELS 3 Zrotation Yrotation Xrotation
									End Site
									{
										OFFSET 0.000000 0.000000 0.000000
									}
								}
							}
						}
					}
				}
			}
		}
	}
}
MOTION
Frames: 11
Frame Time: 0.016667
0.050830 17.308570 -0.196510 -3.186617 -4.634262 5.684770 -15.370607 13.521248 3.121816 -0.260804 -0.722315 -7.442033 -6.317893 3.991956 4.050252 -0.962650 5.164033 3.547500 -0.205770 -0.897300 -0.390210 18.147157 -10.194149 2.908360 -1.499205 0.434319 -6.654060 8.326368 -5.116219 3.765252 -0.512661 -4.002269 3.010476 -0.313230 1.738430 1.089330 -3.051484 -3.344096 -7.383119 4.779737 0.881372 6.873783 0.973694 1.068752 2.693895 -0.335750 -7.482615 -11.840251 -14.968864 13.832883 24.349461 -0.458220 6.777900 -7.479690 -3.449473 -7.805155 4.026388 22.621586 3.881928 2.059445 2.028646 5.636567 -2.832482 -4.788834 2.401326 1.018860 0.855710 -0.127130 0.603110 5.665345 13.191894 8.053337 -17.416159 -5.174879 -0.839335 -5.497386 11.245098 0.306150 1.800887 -1.112355 -0.721880 0.730440 0.616770 0.126060 
0.053830 17.313630 -0.203270 -3.153003 -4.701489 5.480238 -15.360212 13.587393 3.108264 -0.269512 -0.764440 -7.946506 -6.366863 4.155433 5.299168 -0.971350 5.159040 3.546244 -0.196960 -0.877320 -0.393050 18.137842 -10.244954 2.881583 -1.679217 0.511690 -7.103930 8.451756 -5.254247 4.938384 -0.505162 -3.988597 3.012194 -0.302010 1.740660 1.083810 -3.048344 -3.372799 -7.360581 4.638079 0.817190 7.320481 1.081479 1.048480 2.590408 -0.439789 -7.640533 -11.890582 -15.213885 13.904335 23.803858 -0.327800 6.710030 -7.907140 -3.258960 -7.799821 4.081357 22.703680 4.072235 2.068448 1.991028 5.757934 -2.849747 -4.781100 2.392156 1.018650 0.851440 -0.122150 0.612570 5.712065 13.323220 8.065919 -17.775230 -5.051137 -0.892794 -6.165221 10.966342 0.248320 1.807385 -1.111548 -0.722030 0.742050 0.608710 0.134100 
0.057090 17.317420 -0.211280 -3.192145 -4.756704 5.251863 -15.345386 13.651405 3.091292 -0.139743 -0.820810 -8.515138 -6.508623 4.361026 6.674658 -0.982214 5.178553 3.531271 -0.185350 -0.856200 -0.393820 18.132504 -10.298869 2.853699 -1.812745 0.613805 -7.610818 8.558580 -5.410525 6.272480 -0.498974 -3.979371 3.009286 -0.288320 1.740590 1.080140 -3.057264 -3.391141 -7.334278 4.638330 0.736079 7.836139 1.125078 1.033032 2.457718 -0.548199 -7.819949 -11.861000 -15.477087 14.009045 23.183812 -0.130170 6.628030 -8.497890 -3.231642 -7.816259 4.085554 22.916262 4.305054 2.097417 1.914185 5.762747 -2.872431 -4.768828 2.392988 1.020750 0.845570 -0.116560 0.619750 5.907070 13.485443 7.998519 -18.418476 -4.907898 -0.934348 -6.563696 10.602051 0.205072 1.810537 -1.112295 -0.721790 0.753800 0.603960 0.139550 
0.062290 17.318060 -0.219230 -3.211850 -4.823050 5.045416 -15.326820 13.703087 3.070034 0.029993 -0.902827 -9.183168 -6.730688 4.617154 8.219890 -0.997804 5.222314 3.506457 -0.177160 -0.839110 -0.394870 18.132104 -10.352101 2.822847 -2.091528 0.753151 -8.206316 8.868556 -5.614881 7.710125 -0.488192 -3.994912 2.998571 -0.271880 1.742690 1.067580 -3.079764 -3.390218 -7.296181 4.725280 0.631071 8.256310 1.074250 1.002195 2.430110 -0.657511 -8.022121 -11.791804 -15.757415 14.136202 22.439283 0.049570 6.549290 -8.955620 -3.321892 -7.876460 4.087887 23.161144 4.670376 2.155042 1.808788 5.623176 -2.887825 -4.754877 2.396000 1.020510 0.842310 -0.120850 0.621840 6.200106 13.696920 7.893107 -19.222176 -4.678911 -0.983585 -6.815541 10.097910 0.154345 1.812374 -1.113854 -0.729400 0.768860 0.602430 0.140660 
0.067140 17.314870 -0.227170 -3.119315 -4.849396 4.932781 -15.317329 13.748223 3.054525 0.159975 -1.032772 -10.016257 -7.046104 4.922480 9.928830 -0.993135 5.280022 3.473991 -0.163180 -0.819690 -0.389600 18.124402 -10.392390 2.784747 -2.560688 0.937135 -8.956936 9.350305 -5.870062 9.234886 -0.484436 -4.024544 2.982277 -0.263660 1.736200 1.063060 -3.080346 -3.404725 -7.252413 4.599835 0.549542 8.462167 1.049596 0.942359 2.548214 -0.665843 -8.193263 -11.752335 -16.001539 14.261986 21.771360 0.199700 6.534150 -9.365430 -3.576487 -8.044717 4.089797 23.609857 5.188760 2.195807 1.958485 5.308791 -2.861528 -4.730399 2.414675 1.020330 0.834160 -0.117060 0.627220 6.470560 14.003321 7.866431 -19.953092 -4.537899 -1.038971 -6.964134 9.527006 0.117444 1.821285 -1.119675 -0.724300 0.770430 0.592330 0.143610 
0.073070 17.308960 -0.236710 -2.968888 -4.818209 4.856958 -15.312035 13.787725 3.047936 0.230612 -1.201121 -10.941364 -7.321116 5.241117 11.710443 -0.961416 5.347041 3.438895 -0.151220 -0.799470 -0.387050 18.113056 -10.425351 2.746886 -3.121009 1.148804 -9.811201 9.862062 -6.150588 10.814014 -0.482901 -4.070724 2.961311 -0.261710 1.728420 1.067030 -3.071032 -3.424403 -7.216030 4.407855 0.478049 8.624950 1.029403 0.875860 2.631550 -0.616548 -8.346762 -11.745135 -16.221317 14.291644 21.179206 0.195380 6.515880 -9.461510 -3.926461 -8.274087 4.100448 24.043197 5.650206 2.205341 2.107565 5.034350 -2.820820 -4.708246 2.443242 1.005680 0.830140 -0.109250 0.636640 6.736727 14.371780 7.886701 -20.632115 -4.526289 -1.063681 -7.026099 9.047072 0.091525 1.837252 -1.133947 -0.705060 0.760330 0.575500 0.154640 
0.077960 17.299920 -0.245060 -2.843179 -4.825831 4.813335 -15.305513 13.809160 3.050915 0.407428 -1.393151 -11.877216 -7.772927 5.619644 13.445884 -0.938412 5.466652 3.383498 -0.151690 -0.798210 -0.394100 18.105214 -10.444596 2.716628 -3.713963 1.396151 -10.705229 10.501031 -6.483653 12.394834 -0.481252 -4.145693 2.928354 -0.264280 1.728180 1.065740 -3.068897 -3.436467 -7.193511 4.300349 0.414736 8.772138 0.915251 0.842527 2.600009 -0.555812 -8.505725 -11.735679 -16.476248 14.386342 20.692102 0.330740 6.474490 -9.477470 -4.365073 -8.540466 4.092811 24.544582 6.088225 2.227396 2.214774 4.760085 -2.798220 -4.689585 2.464695 1.002160 0.826900 -0.110540 0.639720 7.066555 14.768871 7.910296 -21.302424 -4.521499 -1.109693 -6.978740 8.554459 0.077055 1.846181 -1.138980 -0.700740 0.756300 0.573520 0.159600 
0.084880 17.284080 -0.254580 -2.816209 -4.817440 4.867328 -15.292817 13.797311 3.049108 0.664709 -1.620264 -12.919677 -8.223689 6.017910 15.203235 -0.908527 5.609120 3.320942 -0.143640 -0.785660 -0.401310 18.109814 -10.452169 2.698606 -4.307369 1.684520 -11.667118 11.346914 -6.874412 13.930256 -0.486716 -4.264524 2.881394 -0.258940 1.732810 1.069770 -3.096052 -3.405501 -7.166096 4.429472 0.315719 8.760101 0.665678 0.787596 2.723138 -0.519374 -8.603540 -11.690344 -16.562608 14.451519 20.067361 0.405190 6.413300 -9.284240 -4.759784 -8.775494 4.095700 24.944491 6.563523 2.276534 2.333442 4.448128 -2.769061 -4.677579 2.499047 0.986580 0.832400 -0.116100 0.650190 7.363364 15.061049 7.892757 -21.900406 -4.253019 -1.187963 -7.012399 7.742037 0.023700 1.856346 -1.154583 -0.690780 0.748580 0.565920 0.168450 
0.092310 17.264420 -0.263920 -2.822879 -4.774204 5.006810 -15.284195 13.767560 3.056203 0.982214 -1.868650 -14.007827 -8.749562 6.442283 16.848834 -0.868258 5.769427 3.254276 -0.134930 -0.770450 -0.404430 18.115155 -10.441547 2.687401 -4.870772 2.003572 -12.719482 12.195536 -7.289195 15.484714 -0.497033 -4.400158 2.825786 -0.253810 1.735880 1.070600 -3.119900 -3.374908 -7.147265 4.588731 0.243974 8.677530 0.472560 0.748737 2.880952 -0.467743 -8.704771 -11.669049 -16.648662 14.448275 19.379185 0.409340 6.328450 -9.054680 -5.109859 -8.947719 4.107500 25.106736 6.896730 2.302715 2.737981 4.050089 -2.695521 -4.665235 2.530780 0.968360 0.835860 -0.120660 0.660800 7.599088 15.293806 7.908992 -22.310518 -4.229235 -1.214631 -7.181573 7.265156 -0.025533 1.868347 -1.175642 -0.680220 0.740800 0.553070 0.179210 
0.101150 17.239230 -0.272280 -2.813956 -4.690719 5.186050 -15.273160 13.704780 3.065451 1.324939 -2.136885 -15.120313 -9.343427 6.904088 18.457548 -0.831629 5.967184 3.175078 -0.127940 -0.753440 -0.416120 18.130830 -10.420091 2.677969 -5.490068 2.321629 -13.775889 13.067211 -7.737433 16.962533 -0.508534 -4.569598 2.759885 -0.240460 1.750580 1.071020 -3.164801 -3.311193 -7.118417 4.858129 0.154690 8.369152 0.110703 0.710735 3.322741 -0.451591 -8.737550 -11.655846 -16.592843 14.481104 18.636661 0.485480 6.206620 -8.704770 -5.204119 -9.025173 4.161412 24.949871 6.959090 2.308685 3.022511 3.917791 -2.654986 -4.673122 2.551143 0.944260 0.849410 -0.133580 0.673700 7.623537 15.345486 7.911911 -22.468577 -4.044211 -1.240315 -7.346356 6.675249 -0.093260 1.874658 -1.194823 -0.675390 0.740210 0.545950 0.191720 
0.108300 17.213350 -0.280960 -2.869887 -4.619638 5.330107 -15.265885 13.633366 3.086477 1.840787 -2.393568 -16.180262 -10.118077 7.457387 20.022589 -0.781716 6.215301 3.074050 -0.120020 -0.739190 -0.420770 18.144798 -10.383195 2.678306 -6.032211 2.658285 -14.791797 13.900144 -8.211873 18.449669 -0.530256 -4.754731 2.684253 -0.232450 1.757030 1.077430 -3.201390 -3.256565 -7.112407 5.135603 0.090318 8.157258 -0.211777 0.699788 3.693406 -0.405126 -8.724356 -11.669798 -16.483217 14.484930 18.124667 0.457340 6.150850 -8.463400 -5.323215 -9.055221 4.188682 24.719431 6.892701 2.284678 3.583848 3.736490 -2.590859 -4.684948 2.569760 0.925220 0.858700 -0.139770 0.681640 7.619114 15.316838 7.968676 -22.304793 -3.812619 -1.310489 -7.877477 6.097985 -0.155784 1.887125 -1.208937 -0.665360 0.732600 0.539940 0.200650 
